<svg xmlns="http://www.w3.org/2000/svg" xmlns:xlink="http://www.w3.org/1999/xlink" id="Group_4" data-name="Group 4" width="32.619" height="39.663" viewBox="0 0 32.619 39.663"><defs><clipPath id="clip-path"><path id="Path_10" data-name="Path 10" d="M70.841,3.608,54.881,42.241a.526.526,0,0,0,.507.7h31.54a.526.526,0,0,0,.507-.7L71.854,3.608A.552.552,0,0,0,70.841,3.608Z" transform="translate(-54.848 -3.275)"></path></clipPath><linearGradient id="linear-gradient" x1="-0.185" y1="0.194" x2="0.678" y2="0.773" gradientUnits="objectBoundingBox"><stop offset="0" stop-color="#e97100"></stop><stop offset="0.123" stop-color="#ec5a37"></stop><stop offset="0.245" stop-color="#ef4667"></stop><stop offset="0.353" stop-color="#f03889"></stop><stop offset="0.442" stop-color="#f22f9e"></stop><stop offset="0.5" stop-color="#f22ca6"></stop><stop offset="1" stop-color="#7400d4"></stop></linearGradient><linearGradient id="linear-gradient-2" x1="1.036" y1="0.279" x2="0.366" y2="0.902" gradientUnits="objectBoundingBox"><stop offset="0" stop-color="#0078d4"></stop><stop offset="1" stop-color="#36d1dc"></stop></linearGradient><linearGradient id="linear-gradient-3" x1="0.5" y1="1.999" x2="0.5" y2="-0.508" gradientUnits="objectBoundingBox"><stop offset="0.247" stop-color="#5617ce"></stop><stop offset="0.567" stop-color="#4545ef"></stop><stop offset="0.668" stop-color="#784ef4"></stop><stop offset="0.775" stop-color="#a856f9"></stop><stop offset="0.871" stop-color="#ca5cfc"></stop><stop offset="0.949" stop-color="#df60fe"></stop><stop offset="1" stop-color="#e761ff"></stop></linearGradient></defs><g id="Group_3" data-name="Group 3" clip-path="url(#clip-path)"><path id="Path_7" data-name="Path 7" d="M80.6,0V29.64l20.2,16.973Z" transform="translate(-64.29 -2.074)" fill="url(#linear-gradient)"></path><path id="Path_8" data-name="Path 8" d="M69.093.4,68.9,29.787,48.7,46.76Z" transform="translate(-52.594 -2.221)" fill="url(#linear-gradient-2)"></path><path id="Path_9" data-name="Path 9" d="M67.437,46.8,90.173,63.773H44.7Z" transform="translate(-51.127 -19.234)" fill="url(#linear-gradient-3)"></path></g></svg>